<?xml version="1.0" encoding="utf-8" standalone="no"?>
<!DOCTYPE svg PUBLIC "-//W3C//DTD SVG 1.1//EN"
  "http://www.w3.org/Graphics/SVG/1.1/DTD/svg11.dtd">
<!-- Created with matplotlib (https://matplotlib.org/) -->
<svg height="687.6pt" version="1.1" viewBox="0 0 1334.16 687.6" width="1334.16pt" xmlns="http://www.w3.org/2000/svg" xmlns:xlink="http://www.w3.org/1999/xlink">
 <defs>
  <style type="text/css">
*{stroke-linecap:butt;stroke-linejoin:round;}
  </style>
 </defs>
 <g id="figure_1">
  <g id="patch_1">
   <path d="M 0 687.6 
L 1334.16 687.6 
L 1334.16 0 
L 0 0 
z
" style="fill:#ffffff;"/>
  </g>
  <g id="axes_1">
   <g id="patch_2">
    <path d="M 419.031 611.964 
L 948.483 611.964 
L 948.483 82.512 
L 419.031 82.512 
z
" style="fill:#ffffff;"/>
   </g>
   <g id="patch_3">
    <path clip-path="url(#p06e2231753)" d="M 683.757 484.9369 
C 734.410758 484.9369 782.996688 470.428075 818.814304 444.605826 
C 854.63192 418.783576 874.756871 383.756175 874.756871 347.238 
C 874.756871 310.719825 854.63192 275.692424 818.814304 249.870174 
C 782.996688 224.047925 734.410758 209.5391 683.757 209.5391 
C 633.103242 209.5391 584.517312 224.047925 548.699696 249.870174 
C 512.88208 275.692424 492.757129 310.719825 492.757129 347.238 
C 492.757129 383.756175 512.88208 418.783576 548.699696 444.605826 
C 584.517312 470.428075 633.103242 484.9369 683.757 484.9369 
z
" style="fill:#1f77b4;opacity:0.5;"/>
   </g>
   <g id="patch_4">
    <path clip-path="url(#p06e2231753)" d="M 683.757 512.69175 
C 727.635847 512.69175 769.723438 495.258499 800.750469 464.231469 
C 831.777499 433.204438 849.21075 391.116847 849.21075 347.238 
C 849.21075 303.359153 831.777499 261.271562 800.750469 230.244531 
C 769.723438 199.217501 727.635847 181.78425 683.757 181.78425 
C 639.878153 181.78425 597.790562 199.217501 566.763531 230.244531 
C 535.736501 261.271562 518.30325 303.359153 518.30325 347.238 
C 518.30325 391.116847 535.736501 433.204438 566.763531 464.231469 
C 597.790562 495.258499 639.878153 512.69175 683.757 512.69175 
z
" style="fill:#1f77b4;opacity:0.5;"/>
   </g>
   <g id="patch_5">
    <path clip-path="url(#p06e2231753)" d="M 551.394 446.51025 
L 816.12 446.51025 
L 816.12 247.96575 
L 551.394 247.96575 
z
" style="fill:#1f77b4;"/>
   </g>
   <g id="patch_6">
    <path clip-path="url(#p06e2231753)" d="M 683.757 501.750746 
C 729.565677 501.750746 773.504317 485.470308 805.895943 456.49501 
C 838.28757 427.519713 856.48755 388.215259 856.48755 347.238 
C 856.48755 306.260741 838.28757 266.956287 805.895943 237.98099 
C 773.504317 209.005692 729.565677 192.725254 683.757 192.725254 
C 637.948323 192.725254 594.009683 209.005692 561.618057 237.98099 
C 529.22643 266.956287 511.02645 306.260741 511.02645 347.238 
C 511.02645 388.215259 529.22643 427.519713 561.618057 456.49501 
C 594.009683 485.470308 637.948323 501.750746 683.757 501.750746 
z
" style="fill:none;stroke:#000000;stroke-linejoin:miter;"/>
   </g>
   <g id="patch_7">
    <path clip-path="url(#p06e2231753)" d="M 683.757 500.247774 
C 729.886887 500.247774 774.133624 484.125699 806.75238 455.432249 
C 839.371136 426.738799 857.698734 387.816666 857.698734 347.238 
C 857.698734 306.659334 839.371136 267.737201 806.75238 239.043751 
C 774.133624 210.350301 729.886887 194.228226 683.757 194.228226 
C 637.627113 194.228226 593.380376 210.350301 560.76162 239.043751 
C 528.142864 267.737201 509.815266 306.659334 509.815266 347.238 
C 509.815266 387.816666 528.142864 426.738799 560.76162 455.432249 
C 593.380376 484.125699 637.627113 500.247774 683.757 500.247774 
z
" style="fill:none;stroke:#000000;stroke-linejoin:miter;"/>
   </g>
   <g id="patch_8">
    <path clip-path="url(#p06e2231753)" d="M 683.757 498.678616 
C 730.240159 498.678616 774.825747 482.721877 807.694304 454.322686 
C 840.562861 425.923495 859.030816 387.400521 859.030816 347.238 
C 859.030816 307.075479 840.562861 268.552505 807.694304 240.153314 
C 774.825747 211.754123 730.240159 195.797384 683.757 195.797384 
C 637.273841 195.797384 592.688253 211.754123 559.819696 240.153314 
C 526.951139 268.552505 508.483184 307.075479 508.483184 347.238 
C 508.483184 387.400521 526.951139 425.923495 559.819696 454.322686 
C 592.688253 482.721877 637.273841 498.678616 683.757 498.678616 
z
" style="fill:none;stroke:#000000;stroke-linejoin:miter;"/>
   </g>
   <g id="patch_9">
    <path clip-path="url(#p06e2231753)" d="M 683.757 497.05218 
C 730.62724 497.05218 775.584106 481.266813 808.72637 453.172622 
C 841.868635 425.078432 860.490378 386.969185 860.490378 347.238 
C 860.490378 307.506815 841.868635 269.397568 808.72637 241.303378 
C 775.584106 213.209187 730.62724 197.42382 683.757 197.42382 
C 636.88676 197.42382 591.929894 213.209187 558.78763 241.303378 
C 525.645365 269.397568 507.023622 307.506815 507.023622 347.238 
C 507.023622 386.969185 525.645365 425.078432 558.78763 453.172622 
C 591.929894 481.266813 636.88676 497.05218 683.757 497.05218 
z
" style="fill:none;stroke:#000000;stroke-linejoin:miter;"/>
   </g>
   <g id="patch_10">
    <path clip-path="url(#p06e2231753)" d="M 683.757 495.378139 
C 731.049844 495.378139 776.412063 479.769159 809.853154 451.988897 
C 843.294245 424.208634 862.083892 386.525224 862.083892 347.238 
C 862.083892 307.950776 843.294245 270.267366 809.853154 242.487103 
C 776.412063 214.706841 731.049844 199.097861 683.757 199.097861 
C 636.464156 199.097861 591.101937 214.706841 557.660846 242.487103 
C 524.219755 270.267366 505.430108 307.950776 505.430108 347.238 
C 505.430108 386.525224 524.219755 424.208634 557.660846 451.988897 
C 591.101937 479.769159 636.464156 495.378139 683.757 495.378139 
z
" style="fill:none;stroke:#000000;stroke-linejoin:miter;"/>
   </g>
   <g id="patch_11">
    <path clip-path="url(#p06e2231753)" d="M 683.757 493.666824 
C 731.509611 493.666824 777.312827 478.23816 811.079022 450.778815 
C 844.845217 423.31947 863.81753 386.071378 863.81753 347.238 
C 863.81753 308.404622 844.845217 271.15653 811.079022 243.697185 
C 777.312827 216.23784 731.509611 200.809176 683.757 200.809176 
C 636.004389 200.809176 590.201173 216.23784 556.434978 243.697185 
C 522.668783 271.15653 503.69647 308.404622 503.69647 347.238 
C 503.69647 386.071378 522.668783 423.31947 556.434978 450.778815 
C 590.201173 478.23816 636.004389 493.666824 683.757 493.666824 
z
" style="fill:none;stroke:#000000;stroke-linejoin:miter;"/>
   </g>
   <g id="patch_12">
    <path clip-path="url(#p06e2231753)" d="M 683.757 491.929082 
C 732.008043 491.929082 778.289343 476.683517 812.407983 449.550045 
C 846.526622 422.416574 865.696965 385.610524 865.696965 347.238 
C 865.696965 308.865476 846.526622 272.059426 812.407983 244.925955 
C 778.289343 217.792483 732.008043 202.546918 683.757 202.546918 
C 635.505957 202.546918 589.224657 217.792483 555.106017 244.925955 
C 520.987378 272.059426 501.817035 308.865476 501.817035 347.238 
C 501.817035 385.610524 520.987378 422.416574 555.106017 449.550045 
C 589.224657 476.683517 635.505957 491.929082 683.757 491.929082 
z
" style="fill:none;stroke:#000000;stroke-linejoin:miter;"/>
   </g>
   <g id="patch_13">
    <path clip-path="url(#p06e2231753)" d="M 683.757 490.176077 
C 732.546454 490.176077 779.344187 475.11522 813.843541 448.310484 
C 848.342895 421.505748 867.72715 385.145621 867.72715 347.238 
C 867.72715 309.330379 848.342895 272.970252 813.843541 246.165516 
C 779.344187 219.36078 732.546454 204.299923 683.757 204.299923 
C 634.967546 204.299923 588.169813 219.36078 553.670459 246.165516 
C 519.171105 272.970252 499.78685 309.330379 499.78685 347.238 
C 499.78685 385.145621 519.171105 421.505748 553.670459 448.310484 
C 588.169813 475.11522 634.967546 490.176077 683.757 490.176077 
z
" style="fill:none;stroke:#000000;stroke-linejoin:miter;"/>
   </g>
   <g id="patch_14">
    <path clip-path="url(#p06e2231753)" d="M 683.757 488.419063 
C 733.125915 488.419063 780.479453 473.543336 815.388548 447.068087 
C 850.297642 420.592839 869.91212 384.679656 869.91212 347.238 
C 869.91212 309.796344 850.297642 273.883161 815.388548 247.407913 
C 780.479453 220.932664 733.125915 206.056937 683.757 206.056937 
C 634.388085 206.056937 587.034547 220.932664 552.125452 247.407913 
C 517.216358 273.883161 497.60188 309.796344 497.60188 347.238 
C 497.60188 384.679656 517.216358 420.592839 552.125452 447.068087 
C 587.034547 473.543336 634.388085 488.419063 683.757 488.419063 
z
" style="fill:none;stroke:#000000;stroke-linejoin:miter;"/>
   </g>
   <g id="patch_15">
    <path clip-path="url(#p06e2231753)" d="M 683.757 486.669123 
C 733.747201 486.669123 781.696664 471.97778 817.045074 445.830693 
C 852.393485 419.683605 872.254802 384.215566 872.254802 347.238 
C 872.254802 310.260434 852.393485 274.792395 817.045074 248.645307 
C 781.696664 222.49822 733.747201 207.806877 683.757 207.806877 
C 633.766799 207.806877 585.817336 222.49822 550.468926 248.645307 
C 515.120515 274.792395 495.259198 310.260434 495.259198 347.238 
C 495.259198 384.215566 515.120515 419.683605 550.468926 445.830693 
C 585.817336 471.97778 633.766799 486.669123 683.757 486.669123 
z
" style="fill:none;stroke:#000000;stroke-linejoin:miter;"/>
   </g>
   <g id="patch_16">
    <path clip-path="url(#p06e2231753)" d="M 683.757 484.9369 
C 734.410758 484.9369 782.996688 470.428075 818.814304 444.605826 
C 854.63192 418.783576 874.756871 383.756175 874.756871 347.238 
C 874.756871 310.719825 854.63192 275.692424 818.814304 249.870174 
C 782.996688 224.047925 734.410758 209.5391 683.757 209.5391 
C 633.103242 209.5391 584.517312 224.047925 548.699696 249.870174 
C 512.88208 275.692424 492.757129 310.719825 492.757129 347.238 
C 492.757129 383.756175 512.88208 418.783576 548.699696 444.605826 
C 584.517312 470.428075 633.103242 484.9369 683.757 484.9369 
z
" style="fill:none;stroke:#000000;stroke-linejoin:miter;"/>
   </g>
   <g id="patch_17">
    <path clip-path="url(#p06e2231753)" d="M 683.757 483.232333 
C 735.116671 483.232333 784.379697 468.903112 820.696468 443.400515 
C 857.01324 417.897918 877.418654 383.304119 877.418654 347.238 
C 877.418654 311.171881 857.01324 276.578082 820.696468 251.075485 
C 784.379697 225.572888 735.116671 211.243667 683.757 211.243667 
C 632.397329 211.243667 583.134303 225.572888 546.817532 251.075485 
C 510.50076 276.578082 490.095346 311.171881 490.095346 347.238 
C 490.095346 383.304119 510.50076 417.897918 546.817532 443.400515 
C 583.134303 468.903112 632.397329 483.232333 683.757 483.232333 
z
" style="fill:none;stroke:#000000;stroke-linejoin:miter;"/>
   </g>
   <g id="patch_18">
    <path clip-path="url(#p06e2231753)" d="M 683.757 481.564429 
C 735.864661 481.564429 785.845142 467.410949 822.690822 442.221129 
C 859.536502 417.031309 880.239095 382.861785 880.239095 347.238 
C 880.239095 311.614215 859.536502 277.444691 822.690822 252.254871 
C 785.845142 227.065051 735.864661 212.911571 683.757 212.911571 
C 631.649339 212.911571 581.668858 227.065051 544.823178 252.254871 
C 507.977498 277.444691 487.274905 311.614215 487.274905 347.238 
C 487.274905 382.861785 507.977498 417.031309 544.823178 442.221129 
C 581.668858 467.410949 631.649339 481.564429 683.757 481.564429 
z
" style="fill:none;stroke:#000000;stroke-linejoin:miter;"/>
   </g>
   <g id="patch_19">
    <path clip-path="url(#p06e2231753)" d="M 683.757 479.941067 
C 736.654089 479.941067 787.391771 465.958635 824.795662 441.073239 
C 862.199552 416.187843 883.215788 382.431265 883.215788 347.238 
C 883.215788 312.044735 862.199552 278.288157 824.795662 253.402761 
C 787.391771 228.517365 736.654089 214.534933 683.757 214.534933 
C 630.859911 214.534933 580.122229 228.517365 542.718338 253.402761 
C 505.314448 278.288157 484.298212 312.044735 484.298212 347.238 
C 484.298212 382.431265 505.314448 416.187843 542.718338 441.073239 
C 580.122229 465.958635 630.859911 479.941067 683.757 479.941067 
z
" style="fill:none;stroke:#000000;stroke-linejoin:miter;"/>
   </g>
   <g id="patch_20">
    <path clip-path="url(#p06e2231753)" d="M 683.757 478.368877 
C 737.483983 478.368877 789.017681 464.5521 827.008395 439.961532 
C 864.999109 415.370964 886.345065 382.014315 886.345065 347.238 
C 886.345065 312.461685 864.999109 279.105036 827.008395 254.514468 
C 789.017681 229.9239 737.483983 216.107123 683.757 216.107123 
C 630.030017 216.107123 578.496319 229.9239 540.505605 254.514468 
C 502.514891 279.105036 481.168935 312.461685 481.168935 347.238 
C 481.168935 382.014315 502.514891 415.370964 540.505605 439.961532 
C 578.496319 464.5521 630.030017 478.368877 683.757 478.368877 
z
" style="fill:none;stroke:#000000;stroke-linejoin:miter;"/>
   </g>
   <g id="patch_21">
    <path clip-path="url(#p06e2231753)" d="M 683.757 476.853166 
C 738.353073 476.853166 790.720382 463.196094 829.325635 438.889763 
C 867.930888 414.583431 889.622138 381.612344 889.622138 347.238 
C 889.622138 312.863656 867.930888 279.892569 829.325635 255.586237 
C 790.720382 231.279906 738.353073 217.622834 683.757 217.622834 
C 629.160927 217.622834 576.793618 231.279906 538.188365 255.586237 
C 499.583112 279.892569 477.891862 312.863656 477.891862 347.238 
C 477.891862 381.612344 499.583112 414.583431 538.188365 438.889763 
C 576.793618 463.196094 629.160927 476.853166 683.757 476.853166 
z
" style="fill:none;stroke:#000000;stroke-linejoin:miter;"/>
   </g>
   <g id="patch_22">
    <path clip-path="url(#p06e2231753)" d="M 683.757 475.397924 
C 739.25984 475.397924 792.496899 461.894186 831.743333 437.860751 
C 870.989767 413.827317 893.041279 381.226409 893.041279 347.238 
C 893.041279 313.249591 870.989767 280.648683 831.743333 256.615249 
C 792.496899 232.581814 739.25984 219.078076 683.757 219.078076 
C 628.25416 219.078076 575.017101 232.581814 535.770667 256.615249 
C 496.524233 280.648683 474.472721 313.249591 474.472721 347.238 
C 474.472721 381.226409 496.524233 413.827317 535.770667 437.860751 
C 575.017101 461.894186 628.25416 475.397924 683.757 475.397924 
z
" style="fill:none;stroke:#000000;stroke-linejoin:miter;"/>
   </g>
   <g id="patch_23">
    <path clip-path="url(#p06e2231753)" d="M 683.757 474.005873 
C 740.202569 474.005873 794.343872 460.64881 834.256917 436.876422 
C 874.169961 413.104035 896.596023 380.857233 896.596023 347.238 
C 896.596023 313.618767 874.169961 281.371965 834.256917 257.599578 
C 794.343872 233.82719 740.202569 220.470127 683.757 220.470127 
C 627.311431 220.470127 573.170128 233.82719 533.257083 257.599578 
C 493.344039 281.371965 470.917977 313.618767 470.917977 347.238 
C 470.917977 380.857233 493.344039 413.104035 533.257083 436.876422 
C 573.170128 460.64881 627.311431 474.005873 683.757 474.005873 
z
" style="fill:none;stroke:#000000;stroke-linejoin:miter;"/>
   </g>
   <g id="patch_24">
    <path clip-path="url(#p06e2231753)" d="M 683.757 472.678569 
C 741.179405 472.678569 796.257667 459.461359 836.861439 435.937877 
C 877.465211 412.414395 900.279374 380.505228 900.279374 347.238 
C 900.279374 313.970772 877.465211 282.061605 836.861439 258.538123 
C 796.257667 235.014641 741.179405 221.797431 683.757 221.797431 
C 626.334595 221.797431 571.256333 235.014641 530.652561 258.538123 
C 490.048789 282.061605 467.234626 313.970772 467.234626 347.238 
C 467.234626 380.505228 490.048789 412.414395 530.652561 435.937877 
C 571.256333 459.461359 626.334595 472.678569 683.757 472.678569 
z
" style="fill:none;stroke:#000000;stroke-linejoin:miter;"/>
   </g>
   <g id="patch_25">
    <path clip-path="url(#p06e2231753)" d="M 683.757 471.416532 
C 742.188405 471.416532 798.234477 458.332299 839.55172 435.045482 
C 880.868962 411.758666 904.084006 380.170532 904.084006 347.238 
C 904.084006 314.305468 880.868962 282.717334 839.55172 259.430518 
C 798.234477 236.143701 742.188405 223.059468 683.757 223.059468 
C 625.325595 223.059468 569.279523 236.143701 527.96228 259.430518 
C 486.645038 282.717334 463.429994 314.305468 463.429994 347.238 
C 463.429994 380.170532 486.645038 411.758666 527.96228 435.045482 
C 569.279523 458.332299 625.325595 471.416532 683.757 471.416532 
z
" style="fill:none;stroke:#000000;stroke-linejoin:miter;"/>
   </g>
   <g id="patch_26">
    <path clip-path="url(#p06e2231753)" d="M 683.757 470.219395 
C 743.227586 470.219395 800.270417 457.2613 842.322472 434.198979 
C 884.374526 411.136658 908.00244 379.853047 908.00244 347.238 
C 908.00244 314.622953 884.374526 283.339342 842.322472 260.277021 
C 800.270417 237.2147 743.227586 224.256605 683.757 224.256605 
C 624.286414 224.256605 567.243583 237.2147 525.191528 260.277021 
C 483.139474 283.339342 459.51156 314.622953 459.51156 347.238 
C 459.51156 379.853047 483.139474 411.136658 525.191528 434.198979 
C 567.243583 457.2613 624.286414 470.219395 683.757 470.219395 
z
" style="fill:none;stroke:#000000;stroke-linejoin:miter;"/>
   </g>
   <g id="patch_27">
    <path clip-path="url(#p06e2231753)" d="M 683.757 469.086059 
C 744.294968 469.086059 802.361607 456.247379 845.168414 433.397589 
C 887.975221 410.547799 912.027211 379.552483 912.027211 347.238 
C 912.027211 314.923517 887.975221 283.928201 845.168414 261.078411 
C 802.361607 238.228621 744.294968 225.389941 683.757 225.389941 
C 623.219032 225.389941 565.152393 238.228621 522.345586 261.078411 
C 479.538779 283.928201 455.486789 314.923517 455.486789 347.238 
C 455.486789 379.552483 479.538779 410.547799 522.345586 433.397589 
C 565.152393 456.247379 623.219032 469.086059 683.757 469.086059 
z
" style="fill:none;stroke:#000000;stroke-linejoin:miter;"/>
   </g>
   <g id="patch_28">
    <path clip-path="url(#p06e2231753)" d="M 683.757 468.014841 
C 745.388605 468.014841 804.504236 455.289032 848.084362 432.640124 
C 891.664488 409.991216 916.150984 379.268393 916.150984 347.238 
C 916.150984 315.207607 891.664488 284.484784 848.084362 261.835876 
C 804.504236 239.186968 745.388605 226.461159 683.757 226.461159 
C 622.125395 226.461159 563.009764 239.186968 519.429638 261.835876 
C 475.849512 284.484784 451.363016 315.207607 451.363016 347.238 
C 451.363016 379.268393 475.849512 409.991216 519.429638 432.640124 
C 563.009764 455.289032 622.125395 468.014841 683.757 468.014841 
z
" style="fill:none;stroke:#000000;stroke-linejoin:miter;"/>
   </g>
   <g id="patch_29">
    <path clip-path="url(#p06e2231753)" d="M 683.757 467.003619 
C 746.506617 467.003619 806.69462 454.384358 851.065299 431.925081 
C 895.435979 409.465805 920.366666 379.000213 920.366666 347.238 
C 920.366666 315.475787 895.435979 285.010195 851.065299 262.550919 
C 806.69462 240.091642 746.506617 227.472381 683.757 227.472381 
C 621.007383 227.472381 560.81938 240.091642 516.448701 262.550919 
C 472.078021 285.010195 447.147334 315.475787 447.147334 347.238 
C 447.147334 379.000213 472.078021 409.465805 516.448701 431.925081 
C 560.81938 454.384358 621.007383 467.003619 683.757 467.003619 
z
" style="fill:none;stroke:#000000;stroke-linejoin:miter;"/>
   </g>
   <g id="patch_30">
    <path clip-path="url(#p06e2231753)" d="M 683.757 466.04995 
C 747.647204 466.04995 808.929232 453.531174 854.106428 431.250736 
C 899.283625 408.970298 924.667472 378.747297 924.667472 347.238 
C 924.667472 315.728703 899.283625 285.505702 854.106428 263.225264 
C 808.929232 240.944826 747.647204 228.42605 683.757 228.42605 
C 619.866796 228.42605 558.584768 240.944826 513.407572 263.225264 
C 468.230375 285.505702 442.846528 315.728703 442.846528 347.238 
C 442.846528 378.747297 468.230375 408.970298 513.407572 431.250736 
C 558.584768 453.531174 619.866796 466.04995 683.757 466.04995 
z
" style="fill:none;stroke:#000000;stroke-linejoin:miter;"/>
   </g>
   <g id="patch_31">
    <path clip-path="url(#p06e2231753)" d="M 683.757 465.151182 
C 748.808662 465.151182 811.204735 452.727105 857.203206 430.615211 
C 903.201678 408.503316 929.046977 378.508941 929.046977 347.238 
C 929.046977 315.967059 903.201678 285.972684 857.203206 263.860789 
C 811.204735 241.748895 748.808662 229.324818 683.757 229.324818 
C 618.705338 229.324818 556.309265 241.748895 510.310794 263.860789 
C 464.312322 285.972684 438.467023 315.967059 438.467023 347.238 
C 438.467023 378.508941 464.312322 408.503316 510.310794 430.615211 
C 556.309265 452.727105 618.705338 465.151182 683.757 465.151182 
z
" style="fill:none;stroke:#000000;stroke-linejoin:miter;"/>
   </g>
   <g id="patch_32">
    <path clip-path="url(#p06e2231753)" d="M 683.757 464.304541 
C 749.989392 464.304541 813.517994 451.969672 860.351367 430.016545 
C 907.184741 408.063418 933.499149 378.28441 933.499149 347.238 
C 933.499149 316.19159 907.184741 286.412582 860.351367 264.459455 
C 813.517994 242.506328 749.989392 230.171459 683.757 230.171459 
C 617.524608 230.171459 553.996006 242.506328 507.162633 264.459455 
C 460.329259 286.412582 434.014851 316.19159 434.014851 347.238 
C 434.014851 378.28441 460.329259 408.063418 507.162633 430.016545 
C 553.996006 451.969672 617.524608 464.304541 683.757 464.304541 
z
" style="fill:none;stroke:#000000;stroke-linejoin:miter;"/>
   </g>
   <g id="patch_33">
    <path clip-path="url(#p06e2231753)" d="M 683.757 463.507202 
C 751.1879 463.507202 815.866084 451.256346 863.546931 429.452742 
C 911.227778 407.649137 938.018358 378.072953 938.018358 347.238 
C 938.018358 316.403047 911.227778 286.826863 863.546931 265.023258 
C 815.866084 243.219654 751.1879 230.968798 683.757 230.968798 
C 616.3261 230.968798 551.647916 243.219654 503.967069 265.023258 
C 456.286222 286.826863 429.495642 316.403047 429.495642 347.238 
C 429.495642 378.072953 456.286222 407.649137 503.967069 429.452742 
C 551.647916 451.256346 616.3261 463.507202 683.757 463.507202 
z
" style="fill:none;stroke:#000000;stroke-linejoin:miter;"/>
   </g>
   <g id="patch_34">
    <path clip-path="url(#p06e2231753)" d="M 683.757 462.75635 
C 752.402802 462.75635 818.246291 450.584608 866.786203 428.921808 
C 915.326115 407.259009 942.599381 377.873824 942.599381 347.238 
C 942.599381 316.602176 915.326115 287.216991 866.786203 265.554192 
C 818.246291 243.891392 752.402802 231.71965 683.757 231.71965 
C 615.111198 231.71965 549.267709 243.891392 500.727797 265.554192 
C 452.187885 287.216991 424.914619 316.602176 424.914619 347.238 
C 424.914619 377.873824 452.187885 407.259009 500.727797 428.921808 
C 549.267709 450.584608 615.111198 462.75635 683.757 462.75635 
z
" style="fill:none;stroke:#000000;stroke-linejoin:miter;"/>
   </g>
   <g id="patch_35">
    <path clip-path="url(#p06e2231753)" d="M 683.757 462.049216 
C 753.632816 462.049216 820.656107 449.951982 870.06577 428.421789 
C 919.475434 406.891597 947.23739 377.68629 947.23739 347.238 
C 947.23739 316.78971 919.475434 287.584403 870.06577 266.054211 
C 820.656107 244.524018 753.632816 232.426784 683.757 232.426784 
C 613.881184 232.426784 546.857893 244.524018 497.44823 266.054211 
C 448.038566 287.584403 420.27661 316.78971 420.27661 347.238 
C 420.27661 377.68629 448.038566 406.891597 497.44823 428.421789 
C 546.857893 449.951982 613.881184 462.049216 683.757 462.049216 
z
" style="fill:none;stroke:#000000;stroke-linejoin:miter;"/>
   </g>
   <g id="matplotlib.axis_1">
    <g id="xtick_1">
     <g id="line2d_1">
      <defs>
       <path d="M 0 0 
L 0 3.5 
" id="macc8296e2b" style="stroke:#000000;stroke-width:0.8;"/>
      </defs>
      <g>
       <use style="stroke:#000000;stroke-width:0.8;" x="463.152" xlink:href="#macc8296e2b" y="611.964"/>
      </g>
     </g>
     <g id="text_1">
      <!-- −200 -->
      <defs>
       <path d="M 10.59375 35.5 
L 73.1875 35.5 
L 73.1875 27.203125 
L 10.59375 27.203125 
z
" id="DejaVuSans-8722"/>
       <path d="M 19.1875 8.296875 
L 53.609375 8.296875 
L 53.609375 0 
L 7.328125 0 
L 7.328125 8.296875 
Q 12.9375 14.109375 22.625 23.890625 
Q 32.328125 33.6875 34.8125 36.53125 
Q 39.546875 41.84375 41.421875 45.53125 
Q 43.3125 49.21875 43.3125 52.78125 
Q 43.3125 58.59375 39.234375 62.25 
Q 35.15625 65.921875 28.609375 65.921875 
Q 23.96875 65.921875 18.8125 64.3125 
Q 13.671875 62.703125 7.8125 59.421875 
L 7.8125 69.390625 
Q 13.765625 71.78125 18.9375 73 
Q 24.125 74.21875 28.421875 74.21875 
Q 39.75 74.21875 46.484375 68.546875 
Q 53.21875 62.890625 53.21875 53.421875 
Q 53.21875 48.921875 51.53125 44.890625 
Q 49.859375 40.875 45.40625 35.40625 
Q 44.1875 33.984375 37.640625 27.21875 
Q 31.109375 20.453125 19.1875 8.296875 
z
" id="DejaVuSans-50"/>
       <path d="M 31.78125 66.40625 
Q 24.171875 66.40625 20.328125 58.90625 
Q 16.5 51.421875 16.5 36.375 
Q 16.5 21.390625 20.328125 13.890625 
Q 24.171875 6.390625 31.78125 6.390625 
Q 39.453125 6.390625 43.28125 13.890625 
Q 47.125 21.390625 47.125 36.375 
Q 47.125 51.421875 43.28125 58.90625 
Q 39.453125 66.40625 31.78125 66.40625 
z
M 31.78125 74.21875 
Q 44.046875 74.21875 50.515625 64.515625 
Q 56.984375 54.828125 56.984375 36.375 
Q 56.984375 17.96875 50.515625 8.265625 
Q 44.046875 -1.421875 31.78125 -1.421875 
Q 19.53125 -1.421875 13.0625 8.265625 
Q 6.59375 17.96875 6.59375 36.375 
Q 6.59375 54.828125 13.0625 64.515625 
Q 19.53125 74.21875 31.78125 74.21875 
z
" id="DejaVuSans-48"/>
      </defs>
      <g transform="translate(449.418406 626.562437)scale(0.1 -0.1)">
       <use xlink:href="#DejaVuSans-8722"/>
       <use x="83.789062" xlink:href="#DejaVuSans-50"/>
       <use x="147.412109" xlink:href="#DejaVuSans-48"/>
       <use x="211.035156" xlink:href="#DejaVuSans-48"/>
      </g>
     </g>
    </g>
    <g id="xtick_2">
     <g id="line2d_2">
      <g>
       <use style="stroke:#000000;stroke-width:0.8;" x="573.4545" xlink:href="#macc8296e2b" y="611.964"/>
      </g>
     </g>
     <g id="text_2">
      <!-- −100 -->
      <defs>
       <path d="M 12.40625 8.296875 
L 28.515625 8.296875 
L 28.515625 63.921875 
L 10.984375 60.40625 
L 10.984375 69.390625 
L 28.421875 72.90625 
L 38.28125 72.90625 
L 38.28125 8.296875 
L 54.390625 8.296875 
L 54.390625 0 
L 12.40625 0 
z
" id="DejaVuSans-49"/>
      </defs>
      <g transform="translate(559.720906 626.562437)scale(0.1 -0.1)">
       <use xlink:href="#DejaVuSans-8722"/>
       <use x="83.789062" xlink:href="#DejaVuSans-49"/>
       <use x="147.412109" xlink:href="#DejaVuSans-48"/>
       <use x="211.035156" xlink:href="#DejaVuSans-48"/>
      </g>
     </g>
    </g>
    <g id="xtick_3">
     <g id="line2d_3">
      <g>
       <use style="stroke:#000000;stroke-width:0.8;" x="683.757" xlink:href="#macc8296e2b" y="611.964"/>
      </g>
     </g>
     <g id="text_3">
      <!-- 0 -->
      <g transform="translate(680.57575 626.562437)scale(0.1 -0.1)">
       <use xlink:href="#DejaVuSans-48"/>
      </g>
     </g>
    </g>
    <g id="xtick_4">
     <g id="line2d_4">
      <g>
       <use style="stroke:#000000;stroke-width:0.8;" x="794.0595" xlink:href="#macc8296e2b" y="611.964"/>
      </g>
     </g>
     <g id="text_4">
      <!-- 100 -->
      <g transform="translate(784.51575 626.562437)scale(0.1 -0.1)">
       <use xlink:href="#DejaVuSans-49"/>
       <use x="63.623047" xlink:href="#DejaVuSans-48"/>
       <use x="127.246094" xlink:href="#DejaVuSans-48"/>
      </g>
     </g>
    </g>
    <g id="xtick_5">
     <g id="line2d_5">
      <g>
       <use style="stroke:#000000;stroke-width:0.8;" x="904.362" xlink:href="#macc8296e2b" y="611.964"/>
      </g>
     </g>
     <g id="text_5">
      <!-- 200 -->
      <g transform="translate(894.81825 626.562437)scale(0.1 -0.1)">
       <use xlink:href="#DejaVuSans-50"/>
       <use x="63.623047" xlink:href="#DejaVuSans-48"/>
       <use x="127.246094" xlink:href="#DejaVuSans-48"/>
      </g>
     </g>
    </g>
   </g>
   <g id="matplotlib.axis_2">
    <g id="ytick_1">
     <g id="line2d_6">
      <defs>
       <path d="M 0 0 
L -3.5 0 
" id="m5794529b72" style="stroke:#000000;stroke-width:0.8;"/>
      </defs>
      <g>
       <use style="stroke:#000000;stroke-width:0.8;" x="419.031" xlink:href="#m5794529b72" y="567.843"/>
      </g>
     </g>
     <g id="text_6">
      <!-- −200 -->
      <g transform="translate(384.563813 571.642219)scale(0.1 -0.1)">
       <use xlink:href="#DejaVuSans-8722"/>
       <use x="83.789062" xlink:href="#DejaVuSans-50"/>
       <use x="147.412109" xlink:href="#DejaVuSans-48"/>
       <use x="211.035156" xlink:href="#DejaVuSans-48"/>
      </g>
     </g>
    </g>
    <g id="ytick_2">
     <g id="line2d_7">
      <g>
       <use style="stroke:#000000;stroke-width:0.8;" x="419.031" xlink:href="#m5794529b72" y="457.5405"/>
      </g>
     </g>
     <g id="text_7">
      <!-- −100 -->
      <g transform="translate(384.563813 461.339719)scale(0.1 -0.1)">
       <use xlink:href="#DejaVuSans-8722"/>
       <use x="83.789062" xlink:href="#DejaVuSans-49"/>
       <use x="147.412109" xlink:href="#DejaVuSans-48"/>
       <use x="211.035156" xlink:href="#DejaVuSans-48"/>
      </g>
     </g>
    </g>
    <g id="ytick_3">
     <g id="line2d_8">
      <g>
       <use style="stroke:#000000;stroke-width:0.8;" x="419.031" xlink:href="#m5794529b72" y="347.238"/>
      </g>
     </g>
     <g id="text_8">
      <!-- 0 -->
      <g transform="translate(405.6685 351.037219)scale(0.1 -0.1)">
       <use xlink:href="#DejaVuSans-48"/>
      </g>
     </g>
    </g>
    <g id="ytick_4">
     <g id="line2d_9">
      <g>
       <use style="stroke:#000000;stroke-width:0.8;" x="419.031" xlink:href="#m5794529b72" y="236.9355"/>
      </g>
     </g>
     <g id="text_9">
      <!-- 100 -->
      <g transform="translate(392.9435 240.734719)scale(0.1 -0.1)">
       <use xlink:href="#DejaVuSans-49"/>
       <use x="63.623047" xlink:href="#DejaVuSans-48"/>
       <use x="127.246094" xlink:href="#DejaVuSans-48"/>
      </g>
     </g>
    </g>
    <g id="ytick_5">
     <g id="line2d_10">
      <g>
       <use style="stroke:#000000;stroke-width:0.8;" x="419.031" xlink:href="#m5794529b72" y="126.633"/>
      </g>
     </g>
     <g id="text_10">
      <!-- 200 -->
      <g transform="translate(392.9435 130.432219)scale(0.1 -0.1)">
       <use xlink:href="#DejaVuSans-50"/>
       <use x="63.623047" xlink:href="#DejaVuSans-48"/>
       <use x="127.246094" xlink:href="#DejaVuSans-48"/>
      </g>
     </g>
    </g>
   </g>
   <g id="patch_36">
    <path d="M 419.031 611.964 
L 419.031 82.512 
" style="fill:none;stroke:#000000;stroke-linecap:square;stroke-linejoin:miter;stroke-width:0.8;"/>
   </g>
   <g id="patch_37">
    <path d="M 948.483 611.964 
L 948.483 82.512 
" style="fill:none;stroke:#000000;stroke-linecap:square;stroke-linejoin:miter;stroke-width:0.8;"/>
   </g>
   <g id="patch_38">
    <path d="M 419.031 611.964 
L 948.483 611.964 
" style="fill:none;stroke:#000000;stroke-linecap:square;stroke-linejoin:miter;stroke-width:0.8;"/>
   </g>
   <g id="patch_39">
    <path d="M 419.031 82.512 
L 948.483 82.512 
" style="fill:none;stroke:#000000;stroke-linecap:square;stroke-linejoin:miter;stroke-width:0.8;"/>
   </g>
  </g>
 </g>
 <defs>
  <clipPath id="p06e2231753">
   <rect height="529.452" width="529.452" x="419.031" y="82.512"/>
  </clipPath>
 </defs>
</svg>
